<svg xmlns="http://www.w3.org/2000/svg" width="656" height="512pt" viewBox="0 0 492 512">
    <path fill="#B10000" d="M92.35 442.68q10.1 41.25 0 0c.1 1.96 5.25 19.05 5.5 19.42.26.37 5.67 9.32 9.21 14.04 5.31 7.09 12.59 15.33 16.91 18.63 13.96 10.63 29.76 16.82 47.38 17.01 29.18.32 58.37.24 87.57.07 15.35-.1 28.62-10.67 33.72-25.1.51-1.45 1-5.23.98-5.41.14-1.3.28-2.59.67-4.2.2-2.3.15-4.3.1-6.3-.28-1.16-.35-2.6-.76-3.9-.24-.76-1.91-5.26-2.4-7.22-.26-.7-65.92-114.37-67.73-117.21-10.2-.23-20.1-.27-30-.26-7.2.01-28.19-.16-42.85 4.13-40.18 11.77-68.4 55.03-58.3 96.3Z"/>
    <path fill="#EB5B00" d="M88.58 241.3c-8.08 3.8-38.08 60.81-30.2 68.23-.82 5.19-3.15 35.2-3.22 39.17.24 5.96.32 11.55 1.12 17.04 1.58 10.91 8.03 32.57 8.13 32.85 1.15 3.3 2.29 6.62 3.76 9.78 2.67 5.71 14.88 29.53 24.18 44.84 1.9 3.13 3.66 5.9 5.5 8.86-1.48-4.56-4.42-13.98-5.5-19.12a76.1 76.1 0 0 1-1.65-14.3c-1.66-54.23 54.8-86.63 102.8-86.4 54.18.27 116.79.41 159.15.25 4.87-.01 9.85-.85 14.55-2.14 5.48-1.5 9.85-4.9 13.98-9.12 6.35-6.48 10.24-14.09 10.85-22.9h.01c.02-2.87.32-5.26-.03-8.09-.58-4.59-5.33-13.98-9.05-21.16-2.44-4.69-59.8-106.25-60.74-107.18-1.42.28-23.19.03-82.76 0-1.11 0-65.06 13-69.77 16.22-4.97 3.41-48.46 20.37-53.04 24.18.16.06 0 .1-.18.05q-26.4 26.73-27.9 28.93Z"/>
    <path fill="#FC0" d="M11.6 163.93c-5.4 16.56-8.97 31.97-10.59 48.36a220.53 220.53 0 0 0-.23 39.61A226.4 226.4 0 0 0 12 305.82c6.13 18.24 15.2 35.05 24.85 51.61 11.72 20.1 23.14 40.36 34.75 60.52 2.22 3.85 4.73 7.54 7.11 11.3-2.81-5.65-5.72-11.25-8.38-16.96-1.48-3.16-2.63-6.48-3.77-9.78a177.94 177.94 0 0 1-8.13-32.85c-1.45-59.73-7.93-195.68 266.77-192.33 42.08-.02 83.75-.02 125.43-.07 3.49 0 7.03-.12 10.46-.7a34.82 34.82 0 0 0 21.34-12.31c.43-.49 6.62-7.89 8.3-14.7 1.5-4.56 2.19-9.49 1.14-14.5-4.28-20.39-21.98-45.69-25.88-52.41-2.77-4.78-18.94-32.63-32.57-47.41-18.42-19.97-49.06-31.42-72.48-33-60.6-4.05-98.95-2.2-157.82 2.41a192.88 192.88 0 0 0-39.44 7.06c-7.26 2.09-14.4 4.68-21.44 7.42-6.14 2.38-12.1 5.22-18.09 7.97-3.59 1.66-14.03 7.46-21.25 12.14-46.6 30.2-74.16 72.2-91.3 124.7Z"/>
</svg>
